<svg width="51" height="51" viewBox="0 0 51 51" fill="none" xmlns="http://www.w3.org/2000/svg">
<path d="M39.3891 35.6065C41.4513 32.6937 42.6329 30.4702 44.3944 26.9472C47.5468 20.6425 47.172 14.2705 44.3995 8.56306C43.7033 7.12995 42.6277 5.97267 41.4891 5.05957C45.9063 7.01898 48.9999 11.4876 49 16.6992L39.3891 35.6065ZM39.3891 35.6065C44.5643 30.3851 48.9987 23.8165 49 16.6994L39.3891 35.6065Z" fill="#7E7E7E" stroke="#7E7E7E" stroke-width="2"/>
<path d="M35.2177 3.0313C41.24 3.5087 46 9.44576 46 16.6976C45.997 33.7135 25.9883 47.642 25.4792 47.9941C25.4723 47.998 25.4694 48 25.4694 48C25.4694 48 1 33.9326 1 16.6957C1 9.13174 7.17199 3 14.7856 3C19.0945 3 22.9417 4.96435 25.4694 8.04098C27.8129 5.18837 31.2898 3.2925 35.2177 3.0313Z" fill="white"/>
</svg>
