<svg width="37" height="38" viewBox="0 0 37 38" fill="none" xmlns="http://www.w3.org/2000/svg">
<path d="M37 7.14555V30.8545C37 34.519 34.019 37.5 30.3545 37.5H6.64555C2.98096 37.5 0 34.519 0 30.8545V7.14555C0 3.48096 2.98096 0.5 6.64555 0.5H30.3545C34.019 0.5 37 3.48096 37 7.14555Z" fill="white"/>
<path d="M37 7.14555V30.8545C37 34.519 34.019 37.5 30.3545 37.5H18.5V0.5H30.3545C34.019 0.5 37 3.48096 37 7.14555Z" fill="white"/>
<path d="M30.7529 29.36H5.50799C4.08493 29.36 4.08422 27.14 5.50799 27.14H30.7529C32.1759 27.14 32.1766 29.36 30.7529 29.36Z" fill="black"/>
<path d="M31.4636 29.36H18.5V27.14H31.4636C32.9251 27.14 32.9258 29.36 31.4636 29.36Z" fill="black"/>
<path d="M30.7526 19.74H5.50772C4.08467 19.74 4.08467 17.52 5.50772 17.52H30.7526C32.1764 17.52 32.1764 19.74 30.7526 19.74Z" fill="black"/>
<path d="M31.4546 19.74H18.5V17.52H31.4546C32.9285 17.52 32.9285 19.74 31.4546 19.74Z" fill="black"/>
<path d="M30.7526 10.86H5.50772C4.08467 10.86 4.08467 8.64 5.50772 8.64H30.7526C32.1764 8.64 32.1764 10.86 30.7526 10.86Z" fill="black"/>
<path d="M31.4546 10.86H18.5V8.64H31.4546C32.9285 8.64 32.9285 10.86 31.4546 10.86Z" fill="black"/>
<path d="M25.5302 21.96C27.3693 21.96 28.8602 20.4691 28.8602 18.63C28.8602 16.7909 27.3693 15.3 25.5302 15.3C23.6911 15.3 22.2002 16.7909 22.2002 18.63C22.2002 20.4691 23.6911 21.96 25.5302 21.96Z" fill="#393939"/>
<path d="M28.8602 18.63C28.8602 20.4665 27.2006 21.96 25.1602 21.96V15.3C27.2006 15.3001 28.8602 16.7936 28.8602 18.63Z" fill="#393939"/>
<path d="M15.9101 31.58C17.7492 31.58 19.2401 30.0891 19.2401 28.25C19.2401 26.4109 17.7492 24.92 15.9101 24.92C14.071 24.92 12.5801 26.4109 12.5801 28.25C12.5801 30.0891 14.071 31.58 15.9101 31.58Z" fill="#393939"/>
<path d="M19.9803 28.25C19.9803 30.0865 18.3207 31.58 16.2803 31.58V24.92C18.3207 24.9201 19.9803 26.4135 19.9803 28.25Z" fill="#393939"/>
<path d="M11.4696 13.08C13.3088 13.08 14.7996 11.5891 14.7996 9.75C14.7996 7.91089 13.3088 6.42 11.4696 6.42C9.63054 6.42 8.13965 7.91089 8.13965 9.75C8.13965 11.5891 9.63054 13.08 11.4696 13.08Z" fill="#393939"/>
<path d="M15.5398 9.75C15.5398 11.5638 13.8877 13.0424 11.8398 13.08V6.42C13.8877 6.45756 15.5398 7.93616 15.5398 9.75Z" fill="#393939"/>
</svg>
