<svg width="49" height="45" viewBox="0 0 49 45" fill="none" xmlns="http://www.w3.org/2000/svg">
<path d="M38.4188 32.2676C40.4616 29.4033 41.6403 27.2049 43.3927 23.7324C46.5476 17.4814 46.1723 11.1625 43.3979 5.50407C42.7104 4.10202 41.6538 2.9667 40.5323 2.06768C44.9295 4.01847 47.9999 8.43441 48 13.5721L38.4188 32.2676ZM38.4188 32.2676C43.5829 27.0987 47.9987 20.6044 48 13.5722L38.4188 32.2676Z" fill="#7E7E7E" stroke="#7E7E7E" stroke-width="2"/>
<path d="M24.4694 6.56078L23.6996 5.63253C21.3559 2.80629 17.7876 1 13.7856 1C6.70926 1 1 6.64201 1 13.5685C1 21.6562 6.82629 29.1538 12.9111 34.7428C15.9256 37.5116 18.9444 39.7582 21.2116 41.3132C22.3443 42.0901 23.287 42.6927 23.9445 43.1C24.126 43.2124 24.2856 43.3099 24.4215 43.392C25.8527 42.3564 30.0431 39.1755 34.1878 34.5935C39.2038 29.0484 43.9985 21.6206 44 13.5705L24.4694 6.56078ZM24.4694 6.56078L25.2391 5.63251M24.4694 6.56078L25.2391 5.63251M25.2391 5.63251C27.3978 3.02934 30.5944 1.29228 34.2108 1.03384M25.2391 5.63251L34.2108 1.03384M34.2108 1.03384C39.557 1.49746 43.9999 6.80348 44 13.5703L34.2108 1.03384Z" stroke="#7E7E7E" stroke-width="2"/>
</svg>
