<svg width="50" height="45" viewBox="0 0 50 45" fill="none" xmlns="http://www.w3.org/2000/svg">
<path d="M38.8891 32.6065C40.9513 29.6937 42.1329 27.4702 43.8944 23.9472C47.0468 17.6425 46.672 11.2705 43.8995 5.56306C43.2033 4.12995 42.1277 2.97267 40.9891 2.05957C45.4063 4.01898 48.4999 8.48756 48.5 13.6992L38.8891 32.6065ZM38.8891 32.6065C44.0643 27.3851 48.4987 20.8165 48.5 13.6994L38.8891 32.6065Z" fill="#D66680" stroke="#D66680" stroke-width="2"/>
<path d="M34.7177 0.0313043C40.74 0.508696 45.5 6.44576 45.5 13.6976C45.497 30.7135 25.4883 44.642 24.9792 44.9941C24.9723 44.998 24.9694 45 24.9694 45C24.9694 45 0.5 30.9326 0.5 13.6957C0.5 6.13174 6.67199 0 14.2856 0C18.5945 0 22.4417 1.96435 24.9694 5.04098C27.3129 2.18837 30.7898 0.2925 34.7177 0.0313043Z" fill="#EE2453"/>
</svg>
