<svg width="15" height="25" viewBox="0 0 15 25" fill="none" xmlns="http://www.w3.org/2000/svg">
<path d="M1.09688 1.14861L1.09679 1.1485L1.08835 1.15694L1.08074 1.16455C0.94634 1.29354 0.839197 1.44823 0.76569 1.61945C0.691246 1.79285 0.652857 1.97959 0.652857 2.16829C0.652857 2.357 0.691246 2.54373 0.76569 2.71713C0.840068 2.89038 0.948882 3.0467 1.08553 3.17661C1.08565 3.17672 1.08576 3.17683 1.08588 3.17695L10.8733 12.5019L1.08588 21.8231C1.08578 21.8232 1.08568 21.8233 1.08558 21.8234C0.948911 21.9533 0.840077 22.1096 0.76569 22.2829C0.691246 22.4563 0.652857 22.643 0.652857 22.8317C0.652857 23.0204 0.691246 23.2072 0.765689 23.3806C0.8392 23.5518 0.946349 23.7065 1.08076 23.8355L1.08835 23.8431L1.08825 23.8432L1.09688 23.8514C1.37004 24.1118 1.73294 24.2571 2.11032 24.2571C2.48771 24.2571 2.85061 24.1118 3.12376 23.8514L13.9213 13.5634C14.0653 13.4262 14.1799 13.2612 14.2583 13.0784C14.3366 12.8957 14.377 12.6989 14.377 12.5C14.377 12.3012 14.3366 12.1044 14.2583 11.9216L13.8 12.1179L14.2583 11.9216C14.1799 11.7388 14.0653 11.5738 13.9213 11.4366L3.12376 1.14861C3.12373 1.14858 3.1237 1.14855 3.12367 1.14852C2.85052 0.88818 2.48766 0.74295 2.11032 0.74295C1.73294 0.74295 1.37004 0.888212 1.09688 1.14861Z" fill="#EE2453" stroke="#EE2453"/>
</svg>
