<svg width="99" height="69" viewBox="0 0 99 69" fill="none" xmlns="http://www.w3.org/2000/svg">
<rect x="0.628906" width="98" height="69" rx="10" fill="white"/>
<rect x="1.62891" y="1" width="96" height="32" rx="11" fill="#D23938"/>
<path d="M1.62891 47C1.62891 40.9249 6.55377 36 12.6289 36H86.6289C92.704 36 97.6289 40.9249 97.6289 47V57C97.6289 63.0751 92.704 68 86.6289 68H12.6289C6.55377 68 1.62891 63.0751 1.62891 57V47Z" fill="#D23938"/>
<path d="M40.4289 4.744C40.3649 5.512 40.3329 6.44 40.3329 7.528C40.3329 8.776 40.3329 11.496 40.3329 12.68C40.3329 20.392 39.3089 22.92 36.9729 25.64C34.9249 28.136 31.7249 29.544 29.3889 30.344L27.2769 28.136C30.2209 27.368 32.9409 26.12 34.9249 23.848C37.1969 21.224 37.6129 18.6 37.6129 12.584C37.6129 11.336 37.6129 8.648 37.6129 7.528C37.6129 6.44 37.5169 5.512 37.4209 4.744H40.4289ZM25.5809 5C25.5169 5.608 25.4849 6.536 25.4849 7.272C25.4849 8.232 25.4849 16.616 25.4849 17.96C25.4849 18.792 25.5169 19.848 25.5809 20.424H22.6689C22.7329 19.912 22.7969 18.888 22.7969 17.96C22.7969 16.584 22.7969 8.232 22.7969 7.272C22.7969 6.728 22.7649 5.608 22.6689 5H25.5809ZM70.9249 3.944C71.7249 5.096 72.8769 7.016 73.5169 8.328L71.7889 9.096C71.1489 7.816 70.0929 5.896 69.2289 4.68L70.9249 3.944ZM74.4129 2.664C75.2769 3.848 76.4929 5.832 77.1009 7.016L75.3729 7.784C74.7009 6.408 73.6449 4.584 72.7489 3.4L74.4129 2.664ZM56.5569 5C56.4609 5.768 56.3649 6.696 56.3649 7.592C56.3649 9.32 56.3649 22.184 56.3649 24.488C56.3649 26.152 57.0689 26.568 58.6049 26.856C59.6289 27.048 61.2609 27.112 62.8289 27.112C66.2209 27.112 71.1169 26.792 73.8049 26.088V29.032C71.0209 29.448 66.2209 29.672 62.7329 29.672C60.8129 29.672 58.9249 29.608 57.5809 29.384C55.1489 28.936 53.7729 27.816 53.7729 25.192C53.7729 22.12 53.7729 9.32 53.7729 7.592C53.7729 6.824 53.7089 5.768 53.5809 5H56.5569ZM55.1809 15.112C59.0529 14.28 64.8449 12.52 68.5569 10.952C69.5169 10.504 70.4449 10.056 71.3729 9.48L72.4929 12.04C71.5649 12.424 70.4129 12.936 69.4529 13.32C65.4849 14.92 59.1489 16.776 55.2129 17.768L55.1809 15.112ZM36.7169 37.976C36.5889 38.84 36.5249 39.768 36.5569 40.632C36.5889 44.184 36.8129 55.352 36.8449 61.336C36.8769 63.032 35.8529 63.928 33.9329 63.928C32.3009 63.928 30.4129 63.832 28.8129 63.736L28.5889 61.08C30.1249 61.336 31.9169 61.464 33.1329 61.464C34.0289 61.464 34.3169 61.048 34.3169 60.184C34.3169 55.608 34.1889 44.184 34.0289 40.632C33.9649 39.416 33.9009 38.648 33.7729 37.976H36.7169ZM19.5329 43.576C20.4609 43.672 21.5169 43.736 22.4769 43.736C24.1729 43.736 40.0129 43.736 41.6449 43.736C42.4769 43.736 43.7249 43.64 44.3649 43.544V46.264C43.5969 46.232 42.5089 46.168 41.7089 46.168C40.3009 46.168 23.9809 46.168 22.5409 46.168C21.4529 46.168 20.5569 46.232 19.5329 46.296V43.576ZM18.3809 58.52C25.1329 55.192 31.0529 49.592 33.4209 45.688H34.7009L34.7329 47.832C32.3009 51.64 26.3489 57.336 20.2049 60.6L18.3809 58.52ZM54.8929 39.576C57.1329 41.08 61.2609 44.408 63.0209 46.168L61.0369 48.216C59.4049 46.552 55.4369 43.096 53.0369 41.528L54.8929 39.576ZM52.1409 61.016C57.7089 60.184 61.8689 58.232 64.9089 56.344C69.8689 53.24 73.7409 48.504 75.5969 44.536L77.1329 47.288C74.9569 51.256 71.2449 55.608 66.4129 58.648C63.1809 60.664 59.1489 62.648 53.8049 63.64L52.1409 61.016Z" fill="white"/>
</svg>
