<svg width="43" height="43" viewBox="0 0 43 43" fill="none" xmlns="http://www.w3.org/2000/svg">
<g clip-path="url(#clip0_228_2860)">
<ellipse cx="22" cy="21.5" rx="15" ry="15.5" fill="black"/>
<path d="M21.5 0C9.64451 0 0 9.64451 0 21.5C0 33.3555 9.64451 43 21.5 43C33.3555 43 43 33.3555 43 21.5C43 9.64451 33.3555 0 21.5 0ZM28.1417 22.7667L19.1834 31.725C19.0172 31.8916 18.8198 32.0238 18.6024 32.1139C18.385 32.2039 18.152 32.2502 17.9166 32.25C17.6813 32.2502 17.4483 32.2039 17.2309 32.1138C17.0135 32.0238 16.8161 31.8916 16.6499 31.725C15.9494 31.0245 15.9494 29.8921 16.6499 29.1916L24.3416 21.5L16.65 13.8084C15.9495 13.1079 15.9495 11.9755 16.65 11.275C17.3505 10.5745 18.4829 10.5745 19.1834 11.275L28.1417 20.2333C28.8423 20.9339 28.8423 22.0661 28.1417 22.7667Z" fill="white"/>
</g>
<defs>
<clipPath id="clip0_228_2860">
<rect width="43" height="43" fill="white"/>
</clipPath>
</defs>
</svg>
