<svg width="43" height="43" viewBox="0 0 43 43" fill="none" xmlns="http://www.w3.org/2000/svg">
<g clip-path="url(#clip0_228_2867)">
<ellipse cx="15" cy="15.5" rx="15" ry="15.5" transform="matrix(-1 0 0 1 36 6)" fill="black"/>
<path d="M21.5 0C33.3555 0 43 9.64451 43 21.5C43 33.3555 33.3555 43 21.5 43C9.64452 43 0 33.3555 0 21.5C0 9.64451 9.64452 0 21.5 0ZM14.8583 22.7667L23.8166 31.725C23.9828 31.8916 24.1802 32.0238 24.3976 32.1139C24.615 32.2039 24.848 32.2502 25.0834 32.25C25.3187 32.2502 25.5517 32.2039 25.7691 32.1138C25.9865 32.0238 26.1839 31.8916 26.3501 31.725C27.0506 31.0245 27.0506 29.8921 26.3501 29.1916L18.6584 21.5L26.35 13.8084C27.0505 13.1079 27.0505 11.9755 26.35 11.275C25.6495 10.5745 24.5171 10.5745 23.8166 11.275L14.8583 20.2333C14.1577 20.9339 14.1577 22.0661 14.8583 22.7667Z" fill="white"/>
</g>
<defs>
<clipPath id="clip0_228_2867">
<rect width="43" height="43" fill="white" transform="matrix(-1 0 0 1 43 0)"/>
</clipPath>
</defs>
</svg>
