<svg width="51" height="51" viewBox="0 0 51 51" fill="none" xmlns="http://www.w3.org/2000/svg">
<g clip-path="url(#clip0_228_2080)">
<path d="M30.3711 12.2751L30.334 23.7537C30.3326 24.2316 30.2028 24.7007 29.9576 25.1145C29.7124 25.5283 29.3603 25.8724 28.9364 26.1124L18.3002 32.1302C17.8731 32.3718 17.3882 32.4994 16.8943 32.5C16.4005 32.5006 15.9152 32.3743 15.4874 32.1339L4.77613 26.116C4.34805 25.8753 3.99271 25.5289 3.74601 25.1115C3.49931 24.6942 3.36999 24.2209 3.3711 23.7392L3.39523 12.2615C3.39629 11.7834 3.52588 11.3139 3.77109 10.8997C4.01631 10.4856 4.36858 10.1412 4.79284 9.90107L15.4419 3.87055C15.8694 3.62846 16.3548 3.50064 16.8492 3.5C17.3436 3.49937 17.8295 3.62594 18.2576 3.86694L28.967 9.89655C29.3952 10.1375 29.7505 10.4843 29.997 10.9019C30.2436 11.3196 30.3726 11.7933 30.3711 12.2751Z" fill="#BCBCBC"/>
<path d="M29.3711 12.5669L29.3397 23.8231C29.3382 24.353 29.2014 24.8732 28.9428 25.3322C28.6842 25.7911 28.3129 26.1726 27.8658 26.4389L17.9293 32.3561C17.7714 32.4501 17.5921 32.4997 17.4095 32.5C17.227 32.5003 17.0475 32.4511 16.8894 32.3576C16.7313 32.264 16.6001 32.1293 16.5091 31.9671C16.4181 31.8049 16.3705 31.621 16.3711 31.4339L16.4024 20.1787C16.4038 19.6486 16.5406 19.1282 16.7992 18.6691C17.0578 18.21 17.4292 17.8283 17.8764 17.5619L27.8129 11.6457C28.5051 11.2328 29.3738 11.7457 29.3711 12.5669Z" fill="#D4D6D6"/>
<path d="M16.3711 20.1966L16.3399 31.4412C16.3395 31.6273 16.2916 31.81 16.201 31.971C16.1104 32.132 15.9803 32.2656 15.8238 32.3585C15.6672 32.4513 15.4898 32.5001 15.3091 32.5C15.1285 32.4999 14.9511 32.4508 14.7947 32.3578L4.84342 26.4376C4.39474 26.1708 4.02234 25.7868 3.76383 25.3243C3.50531 24.8617 3.36985 24.3371 3.3711 23.8034L3.40224 12.5588C3.40268 12.3727 3.45061 12.19 3.54121 12.029C3.63181 11.868 3.76189 11.7344 3.91843 11.6415C4.07496 11.5487 4.25243 11.4999 4.43305 11.5C4.61367 11.5001 4.79108 11.5492 4.9475 11.6422L14.8988 17.5624C15.3476 17.8292 15.7201 18.2134 15.9786 18.6761C16.2371 19.1388 16.3725 19.6627 16.3711 20.1966Z" fill="#E0E2E2"/>
<path d="M28.8325 11.9536L18.4636 18.0747C17.9931 18.3524 17.4587 18.4992 16.9145 18.5C16.3703 18.5008 15.8355 18.3557 15.3642 18.0794L4.91212 11.948C4.74787 11.8516 4.61142 11.7131 4.51647 11.5464C4.42151 11.3796 4.37138 11.1904 4.37109 10.9977C4.37081 10.8051 4.42039 10.6157 4.51485 10.4487C4.60932 10.2816 4.74535 10.1427 4.90932 10.0459L15.2783 3.92487C15.7488 3.64723 16.2832 3.50067 16.8274 3.5C17.3716 3.49934 17.9064 3.64458 18.3776 3.92107L28.8297 10.0506C29.5501 10.473 29.552 11.5294 28.8325 11.9536Z" fill="#ECF0F1"/>
<path d="M18.3838 4.85004C19.2223 5.31857 19.227 6.08016 18.4034 6.54326C17.5705 7.0127 16.224 7.00637 15.3855 6.53784C14.547 6.06931 14.5424 5.31857 15.3762 4.85004C16.1979 4.38604 17.5453 4.38061 18.3838 4.85004ZM26.738 9.52178C27.5765 9.99121 27.5812 10.7519 26.7576 11.2159C25.9247 11.6844 24.5782 11.679 23.7397 11.2105C22.9012 10.741 22.8966 9.99121 23.7304 9.52178C24.553 9.05868 25.9004 9.05325 26.738 9.52178ZM9.92687 9.61042C10.7654 10.0799 10.77 10.8405 9.94648 11.3036C9.11358 11.7731 7.75685 11.7731 6.91835 11.3036C6.07985 10.8351 6.08545 10.0799 6.91835 9.61042C7.74191 9.14732 9.08837 9.14189 9.92687 9.61042ZM18.2811 14.2831C19.1196 14.7516 19.1242 15.5132 18.3007 15.9763C17.4678 16.4457 16.1111 16.4457 15.2735 15.9763C14.435 15.5077 14.4397 14.7516 15.2735 14.2831C16.0961 13.82 17.4435 13.8136 18.2811 14.2831ZM18.3324 9.57152C19.1616 10.0355 19.1756 10.7908 18.352 11.2539C17.5191 11.7233 16.1624 11.7233 15.3342 11.2602C14.4957 10.7908 14.5013 10.0355 15.3342 9.5661C16.1568 9.103 17.4939 9.10299 18.3324 9.57152ZM5.88563 12.7807C6.7232 13.2492 7.40203 14.388 7.39923 15.3097C7.39643 16.2431 6.71386 16.6085 5.87536 16.14C5.03686 15.6715 4.3683 14.5499 4.3711 13.6164C4.3739 12.6939 5.04713 12.3113 5.88563 12.7807ZM14.2118 26.9279C15.0503 27.3965 15.7282 28.5352 15.7264 29.4569C15.7235 30.3904 15.0401 30.7675 14.2015 30.2981C13.363 29.8287 12.6954 28.6971 12.6982 27.7637C12.7001 26.8411 13.3733 26.4585 14.2118 26.9279ZM10.0539 19.862C10.8821 20.326 11.56 21.453 11.5572 22.3756C11.5553 23.3081 10.8718 23.6853 10.0436 23.2222C9.20509 22.7528 8.53653 21.6213 8.54027 20.6869C8.54213 19.7643 9.21536 19.3935 10.0529 19.862H10.0539Z" fill="black"/>
<path d="M23.3653 19.8241C22.267 20.5631 21.3678 22.3614 21.3711 23.8335C21.3753 25.3221 22.2803 25.9231 23.3778 25.1842C24.4893 24.4365 25.3752 22.6294 25.3711 21.1399C25.3677 19.6688 24.476 19.0755 23.3644 19.8241H23.3653Z" fill="#880000"/>
<path d="M47.9889 34.924L42.0379 44.7394C41.7902 45.1481 41.4369 45.4832 41.0131 45.7114C40.5894 45.9396 40.11 46.0528 39.6227 46.0399L27.4029 45.7181C26.912 45.7052 26.4304 45.5647 26.0066 45.3108C25.5828 45.0569 25.2319 44.6985 24.9892 44.272L18.9123 33.6C18.6692 33.1734 18.5432 32.6935 18.5468 32.2088C18.5504 31.7241 18.6836 31.2518 18.9329 30.8397L24.8731 21.0188C25.1206 20.6097 25.4739 20.2741 25.8976 20.0456C26.3214 19.8171 26.801 19.7035 27.2885 19.7163L39.5267 20.0344C40.018 20.0472 40.5 20.1877 40.9241 20.4418C41.3482 20.6959 41.6994 21.0545 41.942 21.4815L48.0121 32.163C48.2549 32.5899 48.3806 33.0701 48.3765 33.5549C48.3724 34.0397 48.2387 34.512 47.9889 34.924Z" fill="#BCBCBC"/>
<path d="M46.9628 35.1099L41.1318 44.7371C40.8571 45.1903 40.4713 45.5655 40.0129 45.8254C39.5544 46.0853 39.0392 46.2209 38.5185 46.2186L26.9503 46.1708C26.7665 46.17 26.5872 46.1203 26.4306 46.0264C26.274 45.9326 26.1455 45.7981 26.0582 45.6365C25.971 45.4749 25.928 45.292 25.9336 45.1061C25.9392 44.9203 25.9933 44.7382 26.0903 44.5783L31.922 34.9515C32.1965 34.4981 32.5822 34.1227 33.0406 33.8626C33.4991 33.6024 34.0143 33.4667 34.535 33.4688L46.1035 33.5178C46.9106 33.5211 47.3894 34.4082 46.9635 35.1103L46.9628 35.1099Z" fill="#D4D6D6"/>
<path d="M32.0287 34.6467L26.203 44.264C26.1066 44.4232 25.9713 44.555 25.8106 44.6463C25.65 44.7375 25.4695 44.785 25.2875 44.7839C25.1054 44.7829 24.9281 44.7333 24.7734 44.6401C24.6186 44.547 24.4918 44.4136 24.4057 44.2534L18.929 34.0562C18.6819 33.5965 18.5608 33.0755 18.5778 32.5459C18.5948 32.0164 18.7494 31.497 19.026 31.0404L24.8518 21.4231C24.9481 21.2639 25.0834 21.1321 25.2441 21.0408C25.4048 20.9496 25.5852 20.9021 25.7673 20.9032C25.9493 20.9042 26.1266 20.9538 26.2814 21.0469C26.4361 21.1401 26.5629 21.2735 26.649 21.4337L32.1257 31.6309C32.3728 32.0906 32.494 32.6116 32.4769 33.1412C32.4599 33.6707 32.3053 34.1901 32.0287 34.6467Z" fill="#E0E2E2"/>
<path d="M46.9788 34.3408L34.9348 34.2451C34.3881 34.2409 33.8542 34.0914 33.3871 33.8117C32.9201 33.532 32.5364 33.1321 32.2749 32.6524L26.4776 22.0169C26.3864 21.8498 26.3409 21.6608 26.3455 21.469C26.3502 21.2772 26.4048 21.0893 26.5039 20.9241C26.603 20.7589 26.7432 20.6222 26.9103 20.5277C27.0774 20.4333 27.2657 20.3843 27.4562 20.3858L39.5009 20.482C40.0475 20.4863 40.5812 20.6358 41.0481 20.9154C41.515 21.195 41.8986 21.5947 42.1601 22.0742L47.9582 32.7102C48.3571 33.4427 47.8143 34.3479 46.9788 34.3408Z" fill="#ECF0F1"/>
<path d="M41.0242 22.9102C41.4907 23.7372 41.1018 24.392 40.1682 24.3713C39.2232 24.3501 38.088 23.6617 37.6215 22.8348C37.155 22.0079 37.539 21.3628 38.4841 21.384C39.4182 21.4039 40.5589 22.083 41.0242 22.9102ZM45.6711 31.1526C46.1371 31.9803 45.7479 32.6339 44.8131 32.6135C43.8688 32.5927 42.7337 31.9043 42.2672 31.0774C41.8011 30.2497 42.1847 29.6054 43.1302 29.6259C44.0638 29.6466 45.2045 30.3257 45.6711 31.1526ZM31.4268 22.6972C31.8933 23.5241 31.5044 24.1789 30.5708 24.1582C29.6245 24.1373 28.4787 23.4488 28.0134 22.6216C27.5469 21.7947 27.9409 21.1492 28.8867 21.1709C29.8203 21.1916 30.961 21.8707 31.4268 22.6972ZM36.0732 30.9403C36.5397 31.7672 36.1501 32.4216 35.2157 32.4004C34.2714 32.3796 33.1256 31.6911 32.6591 30.8642C32.1926 30.0373 32.5873 29.3923 33.5324 29.4136C34.4664 29.4335 35.6071 30.1126 36.0732 30.9403ZM43.3703 27.0973C43.836 27.9237 43.4471 28.5785 42.5128 28.5574C41.5685 28.5366 40.4333 27.8482 39.9668 27.0213C39.5008 26.1936 39.8844 25.5493 40.8299 25.5698C41.7635 25.5905 42.9037 26.2703 43.3703 27.0973ZM33.7729 26.8842C34.2386 27.7106 33.8497 28.3655 32.9154 28.3443C31.9711 28.3235 30.8253 27.635 30.3587 26.8081C29.8922 25.9812 30.287 25.3362 31.232 25.3575C32.1661 25.3774 33.3068 26.0565 33.7729 26.8842ZM26.3787 23.3625C26.8452 24.1894 26.8309 25.5083 26.3527 26.2973C25.8689 27.0956 25.104 27.0623 24.6375 26.2354C24.171 25.4084 24.1853 24.1075 24.6694 23.3105C25.1468 22.521 25.9127 22.5348 26.3779 23.362L26.3787 23.3625ZM26.1142 39.7082C26.5807 40.5351 26.5672 41.8545 26.089 42.6435C25.6052 43.4418 24.8342 43.4185 24.3682 42.5909C23.9021 41.7632 23.9211 40.4545 24.4049 39.6562C24.883 38.8672 25.6482 38.8806 26.1142 39.7082ZM26.2468 31.5446C26.707 32.3624 26.699 33.6724 26.2205 34.4602C25.7375 35.2589 24.9666 35.2357 24.5059 34.4187C24.0391 33.5905 24.0585 32.281 24.5423 31.4827C25.0205 30.6937 25.7803 30.7177 26.2468 31.5446ZM44.8696 34.4729C43.9198 34.4489 42.7596 35.0792 42.2862 35.8711C41.8071 36.6722 42.1951 37.3317 43.1449 37.3557C44.0947 37.3798 45.2383 36.7574 45.7168 35.9571C46.1903 35.1652 45.819 34.4958 44.8696 34.4729ZM30.5406 42.3679C29.5908 42.3438 28.4314 42.9746 27.9579 43.7665C27.4781 44.5671 27.8613 45.2363 28.8111 45.2604C29.7601 45.2841 30.9088 44.6531 31.3878 43.852C31.8621 43.0606 31.4908 42.3912 30.5406 42.3679ZM35.268 34.5148C34.3182 34.4907 33.1583 35.1223 32.6854 35.9134C32.2055 36.7141 32.5938 37.3748 33.5441 37.3981C34.4931 37.4217 35.6362 36.8001 36.1152 35.9989C36.5895 35.2075 36.2182 34.5381 35.268 34.5148ZM40.6327 42.3728C39.6837 42.3491 38.5238 42.9808 38.0509 43.7718C37.571 44.5725 37.9537 45.2425 38.9032 45.2653C39.8527 45.2882 41.0017 44.6585 41.4807 43.8573C41.955 43.066 41.5829 42.3961 40.6327 42.3728Z" fill="black"/>
</g>
<defs>
<clipPath id="clip0_228_2080">
<rect width="50" height="50" fill="white" transform="translate(0.371094 0.5)"/>
</clipPath>
</defs>
</svg>
