<svg width="34" height="34" viewBox="0 0 34 34" fill="none" xmlns="http://www.w3.org/2000/svg">
<g clip-path="url(#clip0_228_3045)">
<path d="M33.4136 30.46L26.9276 23.974C28.9054 21.3956 29.9755 18.2357 29.9716 14.986C29.9716 11.016 28.4256 7.28502 25.6186 4.47802C24.2419 3.09367 22.6043 1.99613 20.8006 1.24894C18.9969 0.501744 17.0629 0.119735 15.1106 0.125024C11.1416 0.125024 7.41056 1.67102 4.60256 4.47802C-1.19044 10.272 -1.19044 19.7 4.60256 25.494C5.9792 26.8784 7.61678 27.976 9.42049 28.7232C11.2242 29.4704 13.1582 29.8524 15.1106 29.847C18.4046 29.847 21.5256 28.768 24.0996 26.802L30.5856 33.289C30.9756 33.679 31.4876 33.875 31.9996 33.875C32.5116 33.875 33.0236 33.679 33.4136 33.289C33.5994 33.1033 33.7468 32.8828 33.8473 32.6401C33.9479 32.3974 33.9996 32.1372 33.9996 31.8745C33.9996 31.6118 33.9479 31.3517 33.8473 31.109C33.7468 30.8663 33.5994 30.6458 33.4136 30.46ZM7.43156 22.666C3.19656 18.431 3.19756 11.541 7.43156 7.30602C8.43793 6.29461 9.63486 5.49278 10.9531 4.94694C12.2714 4.4011 13.6848 4.12208 15.1116 4.12602C16.5382 4.1221 17.9514 4.40114 19.2695 4.94698C20.5876 5.49282 21.7844 6.29464 22.7906 7.30602C23.8023 8.31224 24.6043 9.50912 25.1503 10.8274C25.6964 12.1457 25.9755 13.5592 25.9716 14.986C25.9716 17.887 24.8416 20.614 22.7906 22.666C20.7396 24.718 18.0126 25.846 15.1106 25.846C12.2106 25.846 9.48256 24.716 7.43056 22.666H7.43156Z" fill="white"/>
</g>
<defs>
<clipPath id="clip0_228_3045">
<rect width="33.7418" height="33.7501" fill="white" transform="translate(0.257812 0.124969)"/>
</clipPath>
</defs>
</svg>
